PathFileType	4	(X/Y/Z)	1H_nor_fast_right.trc
DataRate	CameraRate	NumFrames	NumMarkers	Units	OrigDataRate	OrigDataStartFrame	OrigNumFrames
250.00	250.00	20	18	mm	250.00	8079	9233
Frame#	Time	c7	r_should	r_elb_m	clavicle	r_upa	r_wri_m	l_upa	l_elb_l	l_low	l_wri_l	l_met	l_elb_m	r_elb_l	l_should	r_low	r_wri_l	r_met	l_wri_m
	X1	Y1	Z1	X2	Y2	Z2	X3	Y3	Z3	X4	Y4	Z4	X5	Y5	Z5	X6	Y6	Z6	X7	Y7	Z7	X8	Y8	Z8	X9	Y9	Z9	X10	Y10	Z10	X11	Y11	Z11	X12	Y12	Z12	X13	Y13	Z13	X14	Y14	Z14	X15	Y15	Z15	X16	Y16	Z16	X17	Y17	Z17	X18	Y18	Z18
8079	32.31200	1089.79272	1429.68335	121.01964	1125.06677	1394.53625	267.66541	1126.24744	1096.37598	368.21335	1203.74268	1295.49817	110.59402	1176.67090	1219.58093	378.41595	1284.51001	1143.44653	226.91986	1100.29382	1140.10876	-99.97375	1108.75488	1032.56421	-113.12749	1122.87866	910.66675	-102.60161	1147.24377	794.77777	-70.77791	1138.24414	717.13464	-116.06902	1066.43750	1022.49121	-21.31103	1174.95435	1176.97693	409.57565	1102.76746	1355.91650	-50.00309	nan	nan	nan	1271.63391	1221.52234	238.42462	1339.62756	1223.19641	187.40070	1069.54529	786.02155	-80.33109
8080	32.31600	1089.73938	1429.67029	121.06233	1125.14136	1394.47437	267.71832	1126.06409	1096.29541	368.22040	1203.71765	1295.51160	110.56931	1176.69507	1219.40356	378.36661	1284.28931	1143.19714	226.72816	1100.23828	1140.10303	-99.94403	1108.71423	1032.54773	-113.09589	1122.85681	910.66254	-102.56483	1147.10291	794.68933	-70.83231	1138.21289	717.13135	-116.03686	1066.41333	1022.47284	-21.25841	1174.94202	1176.82922	409.52100	1102.67041	1355.91626	-49.97774	nan	nan	nan	1271.38306	1221.21155	238.18945	1339.34790	1222.85632	187.17754	1069.51086	786.00519	-80.29952
8081	32.32000	1089.68494	1429.65759	121.11260	1125.21228	1394.41406	267.76624	1125.86743	1096.21924	368.22821	1203.68567	1295.52466	110.53977	1176.71045	1219.21021	378.31674	1284.04773	1142.88574	226.54071	1100.17639	1140.09937	-99.91705	1108.66577	1032.53320	-113.05825	1122.83801	910.65497	-102.52464	1147.17480	794.76611	-70.71603	1138.18359	717.13123	-116.01345	1066.37952	1022.46735	-21.21216	1174.91772	1176.67871	409.47842	1102.56836	1355.91296	-49.95731	nan	nan	nan	1271.12268	1220.83472	237.92947	1339.07666	1222.43787	186.95532	1069.47900	785.97736	-80.26081
8082	32.32400	1089.62842	1429.64368	121.16446	1125.29431	1394.35022	267.81552	1125.65112	1096.14160	368.24774	1203.65479	1295.53687	110.51398	1176.70740	1219.00684	378.26614	1283.24585	1142.38013	226.34145	1100.11084	1140.09143	-99.88125	1108.61353	1032.53296	-113.03162	1122.80481	910.65289	-102.50650	1146.66028	794.76508	-71.15209	1138.15210	717.12848	-115.99103	1066.35193	1022.45380	-21.16965	1174.88586	1176.50098	409.42853	1102.46155	1355.91162	-49.93177	nan	nan	nan	1271.38477	1219.63477	237.57684	1338.81946	1221.94128	186.72751	1069.44373	785.96191	-80.22916
8083	32.32800	1089.56946	1429.63013	121.21423	1125.38538	1394.27771	267.87149	1125.39478	1096.07507	368.28183	1203.61816	1295.54578	110.48226	1176.69641	1218.79321	378.21335	1281.74524	1141.64258	226.13843	1100.03748	1140.08521	-99.84800	1108.55981	1032.52722	-113.00120	1122.76855	910.65668	-102.49831	1146.26636	794.96851	-71.53490	1138.12195	717.12708	-115.96678	1066.31824	1022.44269	-21.12409	1174.84668	1176.31201	409.37857	1102.34839	1355.90796	-49.90600	nan	nan	nan	1272.28540	1217.41809	237.10426	1338.56079	1221.35425	186.49576	1069.40771	785.94757	-80.19653
8084	32.33200	1089.50940	1429.61316	121.27435	1125.48206	1394.20532	267.93082	1125.10156	1096.00647	368.32196	1203.58337	1295.55469	110.45046	1176.66895	1218.56494	378.15976	1281.09802	1140.97119	225.92883	1099.95520	1140.07837	-99.81271	1108.49756	1032.52197	-112.97056	1122.73694	910.66040	-102.47717	1146.75415	794.71313	-70.91386	1138.09021	717.12897	-115.94471	1066.28479	1022.42352	-21.08019	1174.79297	1176.12744	409.34229	1102.22803	1355.90747	-49.87374	1239.50891	1181.87561	328.18289	1271.81897	1217.19666	236.89258	1338.30981	1220.68799	186.25940	1069.36780	785.93396	-80.16782
8085	32.33600	1089.45227	1429.59241	121.34286	1125.58386	1394.13269	267.99527	1124.77991	1095.93994	368.37357	1203.55212	1295.56775	110.42032	1176.62292	1218.33447	378.11423	1280.65588	1140.27148	225.72870	1099.86462	1140.07666	-99.78046	1108.43066	1032.51721	-112.93684	1122.69910	910.67334	-102.45498	1147.12122	794.86420	-70.52174	1138.06177	717.13354	-115.91990	1066.24622	1022.40790	-21.03921	1174.72192	1175.93469	409.30670	1102.10571	1355.90930	-49.84404	1239.41089	1181.36621	328.04083	1270.51477	1218.18787	236.81400	1338.08350	1219.95483	186.02440	1069.32397	785.92554	-80.13846
8086	32.34000	1089.39624	1429.57568	121.40656	1125.69543	1394.05811	268.05704	1124.44543	1095.87378	368.43484	1203.52051	1295.58118	110.39066	1176.56714	1218.10852	378.07355	1280.28076	1139.58862	225.56381	1099.77246	1140.07544	-99.74566	1108.34583	1032.51794	-112.89983	1122.65161	910.68628	-102.43085	1147.18799	794.90588	-70.40283	1138.03589	717.13635	-115.89785	1066.20630	1022.39166	-20.98961	1174.63794	1175.72412	409.25671	1101.98218	1355.91040	-49.81248	1238.81055	1181.24133	327.67929	1270.03625	1217.90527	236.59006	1337.88733	1219.13220	185.78952	1069.28821	785.91388	-80.10669
8087	32.34400	1089.34314	1429.56067	121.47565	1125.81250	1393.97290	268.11746	1124.10364	1095.79626	368.50186	1203.48914	1295.58984	110.36273	1176.50122	1217.89001	378.03918	1279.96179	1138.87268	225.43817	1099.66821	1140.07593	-99.71439	1108.25159	1032.51147	-112.86111	1122.59619	910.70178	-102.41080	1147.17932	794.91504	-70.34781	1138.01208	717.14429	-115.88184	1066.15466	1022.37561	-20.93756	1174.54382	1175.50452	409.19830	1101.85071	1355.90942	-49.77942	1237.61694	1181.58337	327.07758	1269.76489	1217.28662	236.34891	1337.70154	1218.23755	185.57051	1069.25342	785.89941	-80.06190
8088	32.34800	1089.29309	1429.54309	121.54296	1125.93604	1393.88953	268.17621	1123.74048	1095.71497	368.57614	1203.45837	1295.59448	110.32894	1176.42883	1217.67175	378.01352	1279.66260	1138.04236	225.33347	1099.55664	1140.07056	-99.68178	1108.15503	1032.50684	-112.82997	1122.53430	910.71674	-102.39381	1147.00635	794.81903	-70.43874	1137.83264	717.37750	-116.12494	1066.11145	1022.36273	-20.88822	1174.43799	1175.27625	409.14676	1101.71692	1355.91003	-49.73898	1237.67346	1180.86877	327.02237	1269.56177	1216.52917	236.09207	1337.52502	1217.28101	185.34364	1069.21057	785.89929	-80.03225
8089	32.35200	1089.24170	1429.52429	121.61192	1126.06384	1393.81006	268.23590	1123.34460	1095.64099	368.66003	1203.42798	1295.59656	110.29243	1176.34338	1217.45386	378.00009	1279.33105	1137.15161	225.22922	1099.43848	1140.07617	-99.65090	1108.05737	1032.50952	-112.79942	1122.46973	910.73279	-102.37646	1146.66187	794.58856	-70.65868	1137.45850	717.88739	-116.68364	1066.05969	1022.35303	-20.83893	1174.32141	1175.05371	409.10013	1101.58838	1355.91431	-49.69989	1238.49377	1179.50159	327.31854	1269.37769	1215.68127	235.80528	1337.35156	1216.23828	185.11600	1069.16821	785.88507	-80.00040
8090	32.35600	1089.18933	1429.50720	121.68837	1126.19531	1393.72852	268.30670	1122.92004	1095.58459	368.75082	1203.39661	1295.59424	110.25978	1176.25000	1217.23657	377.98303	1278.98352	1136.26672	225.13419	1099.31128	1140.08533	-99.62185	1107.95374	1032.51648	-112.77914	1122.40515	910.74487	-102.35599	1146.67773	794.64203	-70.58754	1137.34619	718.03040	-116.81081	1066.00696	1022.34961	-20.78528	1174.17981	1174.80066	409.03561	1101.45544	1355.92334	-49.65815	1238.56372	1178.72473	327.31357	1269.72620	1214.04285	235.44666	1337.19775	1215.10364	184.86375	1069.12756	785.87262	-79.97177
8091	32.36000	1089.13306	1429.48804	121.76853	1126.22314	1393.67798	268.30283	1122.49622	1095.52271	368.84058	1203.36084	1295.58960	110.23227	1176.13843	1217.00977	377.97412	1278.62329	1135.26111	225.03221	1099.17456	1140.09314	-99.58830	1107.85059	1032.51819	-112.75098	1122.32739	910.75635	-102.33871	1146.77991	794.76678	-70.43960	1137.45288	717.86597	-116.58231	1065.95972	1022.35114	-20.73305	1174.03687	1174.55005	409.00540	1101.31738	1355.92786	-49.61150	1238.45569	1178.05237	327.22351	1270.21216	1212.14880	235.05864	1337.06067	1213.91638	184.62085	1069.08398	785.85876	-79.94475
8092	32.36400	1089.07507	1429.46985	121.85033	1126.11462	1393.67126	268.20486	1122.06177	1095.45825	368.93243	1203.32092	1295.58313	110.20470	1176.00024	1216.76086	377.97446	1278.25671	1134.16284	224.93631	1099.02979	1140.10364	-99.55766	1107.74622	1032.53210	-112.71941	1122.24878	910.75885	-102.30923	1146.49158	794.60358	-70.61615	1137.60583	717.62640	-116.26728	1065.90918	1022.35150	-20.68315	1173.87939	1174.28870	408.98221	1101.18091	1355.93652	-49.56684	1238.29175	1177.35986	327.09729	1269.17932	1212.43945	234.93886	1336.94702	1212.65381	184.39420	1069.04346	785.85724	-79.91941
8093	32.36800	1089.02197	1429.45142	121.92988	1126.17090	1393.61157	268.23022	1121.62000	1095.38916	369.03198	1203.28345	1295.57349	110.17654	1175.84998	1216.51550	377.98276	1277.92383	1133.05334	224.88570	1098.88318	1140.11926	-99.53342	1107.63403	1032.55127	-112.69743	1121.77649	910.58698	-102.05005	1146.37683	794.57318	-70.65040	1137.31616	718.01984	-116.68952	1065.85718	1022.35522	-20.63741	1173.71814	1174.02649	408.97424	1101.04846	1355.95056	-49.52402	1238.10413	1176.65308	326.97003	1268.80347	1211.72144	234.68927	1336.85425	1211.33691	184.19507	1069.00244	785.85889	-79.89127
8094	32.37200	1088.96667	1429.43066	122.00877	1126.27979	1393.52893	268.28918	1121.15906	1095.32263	369.13586	1203.24561	1295.56531	110.15121	1175.69788	1216.26917	377.99271	1277.64172	1131.89307	224.87843	1098.73108	1140.14038	-99.51021	1107.52283	1032.57397	-112.66582	1120.80432	910.18799	-101.50474	1146.31482	794.57227	-70.63634	1137.22400	718.14465	-116.78822	1065.79895	1022.36652	-20.58396	1173.53943	1173.75305	408.94736	1100.91565	1355.96631	-49.48468	1237.44678	1176.32996	326.66910	1268.62292	1210.70337	234.38681	1336.77014	1209.94177	183.97852	1068.95520	785.86700	-79.87008
8095	32.37600	1088.91614	1429.41638	122.09194	1126.40442	1393.44043	268.36136	1120.69080	1095.25562	369.24530	1203.21167	1295.56360	110.12858	1175.53394	1216.00659	377.99866	1277.34290	1130.71057	224.89070	1098.57788	1140.16467	-99.49120	1107.41418	1032.59375	-112.63155	1120.50085	910.08765	-101.35638	1146.26123	794.58630	-70.62518	1137.18127	718.20367	-116.80386	1065.73486	1022.37537	-20.53593	1173.34863	1173.47375	408.89868	1100.78345	1355.98230	-49.43977	1236.22302	1176.44031	326.10526	1268.47607	1209.57666	234.07990	1336.69287	1208.47632	183.73810	1068.90698	785.88153	-79.85664
8096	32.38000	1088.86462	1429.39807	122.17826	1126.54041	1393.35339	268.44864	1120.20923	1095.18420	369.36084	1203.17883	1295.55920	110.10504	1175.36475	1215.74414	378.00449	1277.06860	1129.48645	224.93428	1098.42346	1140.19458	-99.47212	1107.29724	1032.61523	-112.60848	1120.35449	910.08197	-101.31985	1146.34851	794.72101	-70.51848	1137.14526	718.25635	-116.80842	1065.67725	1022.38251	-20.50271	1173.15234	1173.18298	408.85532	1100.64905	1356.00342	-49.39889	1236.25476	1175.49512	326.06750	1268.37036	1208.39478	233.78401	1336.64294	1206.93140	183.49211	1068.85156	785.89655	-79.83935
8097	32.38400	1088.81372	1429.38135	122.26804	1126.67896	1393.26587	268.54425	1119.72070	1095.11438	369.48547	1203.14465	1295.55005	110.07851	1175.20789	1215.49988	378.02103	1276.77820	1128.19458	224.96976	1098.27454	1140.22339	-99.44603	1107.17798	1032.64539	-112.58633	1120.25220	910.11200	-101.30972	1146.61450	795.00354	-70.26038	1137.11060	718.30060	-116.80487	1065.60767	1022.39667	-20.46224	1172.96252	1172.87500	408.82874	1100.50684	1356.03357	-49.35159	1237.06580	1173.90625	326.38507	1268.27917	1207.15039	233.47403	1336.61438	1205.33484	183.26373	1068.79712	785.91461	-79.81473
8098	32.38800	1088.76416	1429.36804	122.36164	1126.81506	1393.17688	268.63550	1119.22351	1095.04163	369.61569	1203.11243	1295.54187	110.04726	1175.05627	1215.26648	378.04922	1276.47473	1126.88464	225.02008	1098.12927	1140.25867	-99.41998	1107.06030	1032.68494	-112.56802	1120.16284	910.14667	-101.28932	1146.50366	794.99640	-70.29958	1137.07825	718.34509	-116.79663	1065.53552	1022.40967	-20.42488	1172.77783	1172.57239	408.82672	1100.36316	1356.06982	-49.30380	1236.65759	1173.28979	326.19342	1268.19177	1205.87793	233.18375	1336.61401	1203.67334	183.05573	1068.73865	785.93372	-79.78995
